<svg version="1.1" id="Layer_1" xmlns="http://www.w3.org/2000/svg" xmlns:xlink="http://www.w3.org/1999/xlink" x="0px" y="0px" width="100%" viewBox="0 0 622 622" enable-background="new 0 0 622 622" xml:space="preserve">

<path fill="#010101" opacity="1.000000" stroke="none" d="
M310.399994,623.000000 
	C303.834930,614.000244 297.534485,605.089233 291.553528,595.968750 
	C287.708160,590.104919 282.026855,589.260193 277.156982,594.348633 
	C271.135223,600.640625 265.287903,607.104187 259.143738,613.272949 
	C254.167892,618.268738 248.312653,616.873108 245.751892,610.329651 
	C242.565125,602.186462 239.345993,594.054626 236.288620,585.862732 
	C234.261887,580.432312 228.610596,578.455261 223.690140,581.800659 
	C217.100204,586.281006 210.623489,590.927673 204.055008,595.440063 
	C194.466736,602.026978 189.420975,599.429443 187.927948,587.699219 
	C186.897217,579.601013 185.318817,571.553528 183.574127,563.573181 
	C182.659027,559.387451 177.202591,557.214355 173.323654,558.971924 
	C165.250397,562.629761 157.176376,566.286438 149.125259,569.992676 
	C142.412781,573.082703 136.881866,569.635620 137.037506,562.199585 
	C137.212128,553.855286 137.071518,545.435730 138.195969,537.203064 
	C138.992371,531.372009 131.535141,525.314758 125.992462,527.244141 
	C117.378616,530.242493 108.396431,532.211914 99.519608,534.412659 
	C95.291092,535.461060 90.013359,529.283875 91.065506,524.291260 
	C92.723648,516.422974 94.720093,508.622406 96.724945,500.832184 
	C97.852348,496.451477 99.007896,492.127380 94.356995,489.069763 
	C92.848907,488.078308 90.948212,487.075256 89.240791,487.098145 
	C80.503334,487.215393 71.772774,487.810364 63.035061,487.957855 
	C55.059685,488.092468 51.652966,482.713165 54.905220,475.442963 
	C58.409222,467.610016 61.946190,459.791443 65.527512,451.993591 
	C67.553261,447.582733 64.779747,440.956451 60.115376,440.111694 
	C51.496525,438.550720 42.849873,436.956543 34.143280,436.125488 
	C27.087536,435.451996 23.148193,429.147949 27.800674,422.359497 
	C32.719593,415.182312 37.952446,408.221039 42.988712,401.123291 
	C46.394417,396.323517 44.560192,390.560608 39.042038,388.515778 
	C31.321024,385.654694 23.607567,382.772095 15.862899,379.976227 
	C6.933174,376.752533 6.258568,368.690704 13.085813,363.216766 
	C19.287579,358.244324 24.758362,352.363922 30.595608,346.931244 
	C32.875710,344.809174 35.052635,342.885864 32.553528,339.395660 
	C32.031105,338.666077 32.851837,336.974731 33.040512,335.807587 
	C24.423313,330.466553 16.085194,324.923492 7.382730,320.028076 
	C0.894732,316.378418 1.887111,307.603485 7.397759,304.244354 
	C14.973930,299.626068 22.534372,294.981476 30.141094,290.413971 
	C33.415638,288.447784 34.366188,280.625580 31.586948,278.145874 
	C25.287966,272.525848 19.094181,266.785980 12.728310,261.243378 
	C5.563649,255.005219 7.912107,246.731537 16.581329,244.557922 
	C24.629202,242.540070 32.240295,238.758591 40.014694,235.680389 
	C44.144642,234.045166 45.908279,227.383759 43.342964,223.818283 
	C38.511681,217.103394 33.997604,210.144699 28.900356,203.641052 
	C23.601795,196.880539 24.631210,189.480164 35.521473,187.972992 
	C43.878178,186.816467 52.192406,185.350464 60.520817,183.993195 
	C64.267616,183.382584 67.554337,177.164139 65.966202,173.649689 
	C62.590584,166.179657 59.008018,158.797958 55.843048,151.240707 
	C54.722313,148.564636 54.027840,145.468414 54.107666,142.590897 
	C54.213024,138.793015 56.633404,136.783218 60.705441,136.913742 
	C70.571518,137.229935 80.442932,137.376556 90.310181,137.660995 
	C93.769608,137.760712 98.686699,131.672287 97.825401,127.988533 
	C95.801285,119.331406 93.730133,110.683632 91.531860,102.069374 
	C89.613510,94.551979 94.525970,89.311646 102.154022,91.054588 
	C110.476143,92.956123 118.758308,95.032242 127.060829,97.019981 
	C133.198700,98.489494 138.369797,93.933975 138.030365,87.639549 
	C137.562683,78.966728 137.194077,70.283478 137.044739,61.600189 
	C136.923111,54.528343 142.442169,51.325970 148.774094,54.282005 
	C157.083557,58.161240 165.474930,61.876842 173.930283,65.426537 
	C177.973434,67.123924 183.115936,64.421921 184.004211,60.093163 
	C185.536804,52.624557 186.582977,45.057404 188.018250,37.567043 
	C188.776581,33.609501 188.177109,29.067955 192.690094,26.551342 
	C195.857925,24.784836 198.625122,24.958519 201.526215,27.030565 
	C209.217545,32.523922 216.942642,37.970875 224.702438,43.367035 
	C227.836258,45.546272 234.595825,43.468830 235.963776,39.871113 
	C239.046692,31.763006 242.096085,23.639421 244.977188,15.458071 
	C247.981857,6.925849 253.957260,5.309589 260.162323,11.747175 
	C265.963745,17.765984 271.521484,24.022429 277.106873,30.245768 
	C280.695618,34.244427 287.540680,34.341576 290.501221,29.881773 
	C295.227356,22.762276 299.562439,15.381269 303.998871,8.071981 
	C307.786346,1.831798 314.624329,-1.137319 320.028320,8.059226 
	C324.209808,15.175273 328.655792,22.136362 333.009338,29.150730 
	C336.235535,34.348785 342.824341,34.724453 346.909821,30.150539 
	C352.487549,23.905951 358.109406,17.691465 363.954651,11.700473 
	C365.847992,9.759903 368.503296,8.562722 370.444946,7.268820 
	C379.853088,9.977568 379.749329,18.750572 382.886292,25.228994 
	C385.046112,29.689388 386.135529,34.657635 388.089142,39.234207 
	C388.739685,40.758217 390.417664,42.053497 391.922760,42.961136 
	C395.556030,45.152161 398.605469,44.775444 402.164948,41.723370 
	C407.773956,36.914013 414.235718,33.111912 420.202637,28.702324 
	C423.552917,26.226465 427.418640,23.378748 430.953552,26.285751 
	C433.597107,28.459711 435.077362,32.687790 435.926361,36.273342 
	C437.787354,44.132610 438.777344,52.193615 440.400269,60.115444 
	C441.394104,64.966515 446.663239,67.396927 451.087006,65.433434 
	C459.943756,61.502346 468.800232,57.570461 477.673401,53.676670 
	C481.182770,52.136646 486.886444,55.122276 486.917664,58.870506 
	C487.001434,68.933075 486.891632,79.006805 486.464111,89.059326 
	C486.294891,93.037788 491.888519,98.571274 495.890289,97.575203 
	C504.489258,95.434860 513.068787,93.214775 521.681396,91.131439 
	C529.642334,89.205742 534.581970,94.327866 532.612915,102.267349 
	C530.473450,110.894287 528.418579,119.542297 526.350037,128.186676 
	C525.326721,132.463074 530.757568,137.452591 535.301453,137.282990 
	C545.249634,136.911652 555.219666,136.921997 565.175903,137.081635 
	C568.832275,137.140274 571.763306,142.542313 570.171509,146.337769 
	C566.379333,155.379318 562.323608,164.311920 558.277100,173.244446 
	C556.442322,177.294632 559.589050,183.228424 564.083740,184.017975 
	C573.346497,185.645096 582.633301,187.161514 591.844788,189.043777 
	C598.027893,190.307175 600.460205,196.203323 596.912842,201.440109 
	C591.895447,208.846939 586.536804,216.025467 581.230591,223.232773 
	C577.788330,227.908310 579.710571,234.090637 585.257629,236.069046 
	C592.693726,238.721222 600.096008,241.468826 607.499512,244.211288 
	C608.399963,244.544846 609.254822,245.042816 610.069153,245.561310 
	C617.025085,249.989609 618.228577,253.674988 612.581848,259.764923 
	C607.006653,265.777588 600.854309,271.291107 594.654846,276.678009 
	C589.186096,281.430054 589.402832,287.547241 595.460876,291.173737 
	C602.589539,295.441071 609.614258,299.882294 616.674133,304.264069 
	C622.996704,308.188232 622.390869,316.814270 616.714050,319.956238 
	C609.220825,324.103577 602.207214,329.108002 594.868591,333.547546 
	C590.454956,336.217590 589.235229,342.722412 592.976135,346.392914 
	C598.921021,352.225891 604.855835,358.097900 611.165100,363.522858 
	C617.385498,368.871399 618.033813,375.538971 609.469116,379.043518 
	C601.587097,382.268677 593.579590,385.220184 585.507019,387.934296 
	C580.677368,389.558105 577.912292,396.196625 580.850525,400.367249 
	C585.710083,407.265076 590.519226,414.202606 595.558594,420.967743 
	C598.127258,424.416077 599.973450,428.183807 597.103943,431.730835 
	C595.357605,433.889526 591.988281,435.308197 589.114563,435.874481 
	C580.527283,437.566589 571.810608,438.589630 563.175049,440.054626 
	C559.931335,440.604950 556.744812,447.642670 558.153015,450.771576 
	C562.066101,459.466248 566.072693,468.119049 569.961060,476.824646 
	C572.304626,482.071564 568.579041,488.037231 562.822266,487.948547 
	C553.567749,487.805939 544.320312,487.248627 535.066040,487.030243 
	C529.408020,486.896698 525.751831,491.542908 526.987061,497.146149 
	C528.845032,505.574524 530.739075,513.996338 532.752075,522.388733 
	C534.585083,530.030273 530.091125,534.841553 522.651062,533.064880 
	C514.173279,531.040344 505.700012,528.994873 497.204041,527.049011 
	C491.352997,525.708923 486.523682,530.798340 486.816437,536.797424 
	C487.273804,546.170898 487.190369,555.587341 486.917145,564.973389 
	C486.765869,570.170105 481.279022,572.668518 475.829803,570.274292 
	C468.438477,567.026794 460.777222,564.190247 453.869324,560.100464 
	C446.294891,555.616150 439.586761,560.642029 438.866486,568.811523 
	C438.167206,576.742859 436.494141,584.605530 434.950836,592.439758 
	C433.736237,598.605347 428.331299,601.024536 423.184662,597.596191 
	C416.056427,592.847778 409.161438,587.743286 402.246918,582.681580 
	C395.948273,578.070679 390.429474,579.593018 387.583984,586.875610 
	C384.421600,594.969177 381.303894,603.080566 378.081268,611.150085 
	C375.858337,616.716309 369.566345,618.085388 365.391296,613.810425 
	C358.816559,607.078491 352.449066,600.144653 345.911774,593.375549 
	C342.329132,589.665771 336.458435,590.333191 333.610382,594.739563 
	C329.382935,601.280212 325.395660,607.980469 321.028656,614.424683 
	C319.087006,617.289917 316.468414,619.696472 314.078552,622.655579 
	C312.933319,623.000000 311.866669,623.000000 310.399994,623.000000 
M179.852097,483.481995 
	C179.447784,483.400513 179.043472,483.319031 177.773605,483.213898 
	C176.284256,483.286163 174.787445,483.492126 173.306717,483.409637 
	C161.069595,482.727997 151.313766,496.549469 155.605957,508.150269 
	C160.617477,521.695190 175.176865,525.964661 187.066589,517.307800 
	C191.691040,513.940796 194.631287,505.852722 193.153000,500.896851 
	C194.318542,494.001770 188.045334,486.069794 179.936554,484.057709 
	C179.936554,484.057709 179.930618,484.144867 179.852097,483.481995 
M428.138489,505.773834 
	C428.423492,506.690826 428.707275,507.608185 428.993713,508.524719 
	C432.217926,518.841431 443.456268,525.337219 453.111481,521.909668 
	C465.539948,517.497620 468.910309,508.656769 466.521362,497.741028 
	C464.530823,488.645874 455.669800,482.100281 444.821747,484.235626 
	C435.937408,483.356171 426.704742,496.486969 428.138489,505.773834 
M169.228134,464.985199 
	C174.940292,463.676025 180.603287,462.062103 186.376419,461.131042 
	C194.477432,459.824615 203.060043,462.169952 205.555038,471.981964 
	C208.917267,485.204559 211.402161,498.648285 214.455307,511.953156 
	C215.026855,514.443848 215.099396,516.950317 218.613510,518.505981 
	C255.249176,534.723877 293.400696,540.667053 333.282593,537.251831 
	C354.812195,535.408203 375.394501,530.108704 395.539917,522.744690 
	C401.476868,520.574524 407.932983,519.057739 408.442444,510.315247 
	C408.852051,503.286072 411.023499,496.353668 412.485687,489.393585 
	C413.592285,484.126251 414.236450,478.667267 416.103394,473.673859 
	C419.972900,463.324554 426.771790,460.226959 437.628082,462.641510 
	C443.515350,463.950928 449.501678,464.814941 456.035400,466.529144 
	C460.648804,467.439392 465.461426,467.809021 469.818390,469.415009 
	C474.003906,470.957794 476.608643,469.384277 478.811951,466.575439 
	C485.188446,458.446503 491.496185,450.255249 497.570679,441.899231 
	C522.517578,407.582520 534.339722,368.317017 539.779663,326.910767 
	C541.200012,316.099426 540.289307,304.930695 539.796997,293.955353 
	C539.674438,291.223816 537.669128,287.256317 535.411011,286.159973 
	C522.814514,280.044098 509.920105,274.528961 497.034729,269.025696 
	C489.115997,265.643677 484.843719,258.684082 487.121979,250.235321 
	C488.876160,243.730087 491.722992,237.489441 494.413635,231.273834 
	C498.465973,221.912491 502.602753,212.575974 507.093719,203.420242 
	C510.210449,197.066223 508.326080,192.134048 503.949127,186.841492 
	C493.599915,173.988815 483.694336,160.740768 472.728821,148.437378 
	C466.530487,141.482849 458.589844,136.081161 451.055206,129.373199 
	C437.957764,118.540215 423.582214,109.502403 407.952423,103.146797 
	C392.120728,96.709068 375.561951,92.033646 359.228760,86.880707 
	C356.575928,86.043762 353.747955,85.321404 350.756287,88.355408 
	C341.524384,97.717880 331.322968,106.129341 322.163879,115.556992 
	C315.352417,122.568199 305.606384,122.834312 298.890564,115.494377 
	C290.492981,106.316391 281.750977,97.449524 273.007874,88.596291 
	C271.796478,87.369629 269.548859,86.070480 268.082520,86.355621 
	C245.764587,90.695518 224.197739,97.454033 204.483643,108.948753 
	C193.493713,115.356682 183.184982,122.932961 171.926880,130.044693 
	C157.435913,141.189484 144.616684,154.028183 133.601273,168.595871 
	C129.042267,174.625092 125.095963,181.117615 120.246483,187.737717 
	C119.461967,188.595062 118.756714,189.545334 117.879265,190.293686 
	C113.997391,193.604462 113.009048,197.116302 115.792763,201.881485 
	C118.297134,206.168533 119.966370,210.943985 121.996605,215.507309 
	C125.758064,223.961792 129.345688,232.498657 133.312439,240.855606 
	C139.087662,253.022491 137.352158,263.525543 123.427986,269.070801 
	C111.338394,273.885406 99.566925,279.502319 87.693802,284.851074 
	C86.648247,285.322083 85.225128,286.352142 85.112968,287.262451 
	C84.547462,291.851959 84.125969,296.486542 84.099861,301.107849 
	C84.070953,306.224762 84.514885,311.344940 84.770157,316.462830 
	C85.235863,325.799500 84.826881,335.289581 86.413803,344.432556 
	C88.363014,355.662903 91.311958,366.836487 95.054276,377.608826 
	C99.571472,390.611633 104.613228,403.551178 110.798325,415.827667 
	C120.116089,434.322052 131.148743,451.862610 146.089569,466.527496 
	C147.423782,467.837067 149.867630,469.066895 151.540375,468.789764 
	C157.247940,467.844269 162.841110,466.208313 169.228134,464.985199 
M307.991760,55.009663 
	C307.094391,55.340160 306.194977,55.665295 305.299927,56.002007 
	C298.653351,58.502457 293.642792,62.896130 292.128296,69.901161 
	C290.450226,77.662758 292.578949,84.383484 299.023102,89.801537 
	C303.441650,93.516525 308.199860,93.482513 313.397797,93.504890 
	C324.125519,93.551079 332.169983,81.893951 330.804626,73.004288 
	C329.035156,61.483681 320.833221,54.465126 307.991760,55.009663 
M75.316895,249.982330 
	C80.138306,259.168091 86.820503,261.929047 96.854286,260.907349 
	C104.593559,260.119293 109.787384,252.715607 111.625694,244.345184 
	C114.649399,230.577301 100.344856,219.062775 86.226799,223.887054 
	C76.146271,227.331680 71.792480,236.834579 75.316895,249.982330 
M531.363770,223.973083 
	C516.316956,222.939850 508.114960,235.456528 511.595367,248.807922 
	C514.489929,259.911926 528.187866,265.550232 538.866577,260.024536 
	C545.861267,256.405121 551.384094,246.950104 549.930664,240.899918 
	C547.670349,231.491119 541.209106,224.073898 531.363770,223.973083 
z" data-index="1" style="opacity: 1;"></path>
<path fill="#0297C6" opacity="1.000000" stroke="none" d="
M451.433990,129.980042 
	C458.589844,136.081161 466.530487,141.482849 472.728821,148.437378 
	C483.694336,160.740768 493.599915,173.988815 503.704376,187.447861 
	C500.859558,196.808304 494.291351,199.762497 485.918060,199.916794 
	C480.143402,200.023224 474.365204,199.937225 468.006989,199.937225 
	C468.006989,202.536209 468.007019,204.481369 468.006989,206.426544 
	C468.006683,269.004669 468.181641,331.583710 467.863586,394.160217 
	C467.797119,407.239471 466.777405,420.455811 464.600433,433.339172 
	C462.733734,444.386414 458.583618,455.047821 455.443329,465.879883 
	C449.501678,464.814941 443.515350,463.950928 437.628082,462.641510 
	C426.771790,460.226959 419.972900,463.324554 416.103394,473.673859 
	C414.236450,478.667267 413.592285,484.126251 412.485687,489.393585 
	C411.023499,496.353668 408.852051,503.286072 408.442444,510.315247 
	C407.932983,519.057739 401.476868,520.574524 395.539917,522.744690 
	C375.394501,530.108704 354.812195,535.408203 333.282593,537.251831 
	C293.400696,540.667053 255.249176,534.723877 218.613510,518.505981 
	C215.099396,516.950317 215.026855,514.443848 214.455307,511.953156 
	C211.402161,498.648285 208.917267,485.204559 205.555038,471.981964 
	C203.060043,462.169952 194.477432,459.824615 186.376419,461.131042 
	C180.603287,462.062103 174.940292,463.676025 168.768616,464.537170 
	C159.348663,441.836884 156.069962,418.599365 156.088165,394.749054 
	C156.136063,331.967163 156.103943,269.185181 156.103714,206.403244 
	C156.103714,204.457550 156.103714,202.511856 156.103714,200.388535 
	C148.429199,200.048584 141.314056,199.910797 134.229599,199.370667 
	C126.857788,198.808624 122.405647,194.647018 120.871002,187.399429 
	C125.095963,181.117615 129.042267,174.625092 133.601273,168.595871 
	C144.616684,154.028183 157.435913,141.189484 172.745575,130.021423 
	C205.390030,130.010391 237.216080,129.945114 269.041351,130.075272 
	C280.783539,130.123291 286.250610,134.121338 287.886414,145.735489 
	C289.312378,155.860077 289.692810,166.309692 289.015381,176.514801 
	C287.707855,196.211472 283.055420,200.024338 263.454224,200.030350 
	C256.343842,200.032532 249.233444,200.030716 241.697937,200.030716 
	C241.697937,202.153641 241.697891,203.622086 241.697937,205.090530 
	C241.699692,266.409576 241.611282,327.728882 241.804474,389.047333 
	C241.832138,397.822601 242.480438,406.734955 244.123245,415.339172 
	C248.478012,438.147491 260.772369,455.058228 282.988037,463.582336 
	C296.324097,468.699402 310.256073,469.720459 324.309204,467.746429 
	C350.026550,464.133972 368.434265,451.030396 377.289093,425.930084 
	C381.673859,413.500824 382.729279,400.578278 382.743103,387.555145 
	C382.807526,326.902679 382.774445,266.250122 382.762939,205.597595 
	C382.762604,203.833801 382.613770,202.070053 382.521729,200.030640 
	C374.631866,200.030640 367.310944,200.087448 359.991608,200.004150 
	C356.836823,199.968246 353.681641,199.689178 350.533142,199.438782 
	C343.318085,198.864975 338.383301,194.889297 337.183716,187.996765 
	C335.653107,179.202225 334.702209,170.204315 334.653900,161.287811 
	C334.617462,154.563446 335.889526,147.706329 337.498169,141.133224 
	C339.183502,134.246826 344.463470,130.816101 351.464813,130.239929 
	C354.282471,130.008057 357.124481,130.013596 359.955475,130.011551 
	C390.448303,129.989487 420.941162,129.987503 451.433990,129.980042 
z" data-index="2" style="opacity: 1;"></path>

<path fill="#FEFEFE" opacity="1.000000" stroke="none" d="
M120.558746,187.568573 
	C122.405647,194.647018 126.857788,198.808624 134.229599,199.370667 
	C141.314056,199.910797 148.429199,200.048584 156.103714,200.388535 
	C156.103714,202.511856 156.103714,204.457550 156.103714,206.403244 
	C156.103943,269.185181 156.136063,331.967163 156.088165,394.749054 
	C156.069962,418.599365 159.348663,441.836884 168.393524,464.462524 
	C162.841110,466.208313 157.247940,467.844269 151.540375,468.789764 
	C149.867630,469.066895 147.423782,467.837067 146.089569,466.527496 
	C131.148743,451.862610 120.116089,434.322052 110.798325,415.827667 
	C104.613228,403.551178 99.571472,390.611633 95.054276,377.608826 
	C91.311958,366.836487 88.363014,355.662903 86.413803,344.432556 
	C84.826881,335.289581 85.235863,325.799500 84.770157,316.462830 
	C84.514885,311.344940 84.070953,306.224762 84.099861,301.107849 
	C84.125969,296.486542 84.547462,291.851959 85.112968,287.262451 
	C85.225128,286.352142 86.648247,285.322083 87.693802,284.851074 
	C99.566925,279.502319 111.338394,273.885406 123.427986,269.070801 
	C137.352158,263.525543 139.087662,253.022491 133.312439,240.855606 
	C129.345688,232.498657 125.758064,223.961792 121.996605,215.507309 
	C119.966370,210.943985 118.297134,206.168533 115.792763,201.881485 
	C113.009048,197.116302 113.997391,193.604462 117.879265,190.293686 
	C118.756714,189.545334 119.461967,188.595062 120.558746,187.568573 
z" data-index="4" style="opacity: 1; visibility: hidden; fill: rgb(121, 40, 202); stroke: rgb(121, 40, 202);"></path>

<path fill="#FEFEFE" opacity="1.000000" stroke="none" d="
M308.422150,54.999420 
	C320.833221,54.465126 329.035156,61.483681 330.804626,73.004288 
	C332.169983,81.893951 324.125519,93.551079 313.397797,93.504890 
	C308.199860,93.482513 303.441650,93.516525 299.023102,89.801537 
	C292.578949,84.383484 290.450226,77.662758 292.128296,69.901161 
	C293.642792,62.896130 298.653351,58.502457 305.299927,56.002007 
	C306.194977,55.665295 307.094391,55.340160 308.422150,54.999420 
z" data-index="6" style="opacity: 1; visibility: hidden; fill: rgb(121, 40, 202); stroke: rgb(121, 40, 202);"></path>

<path fill="#FEFEFE" opacity="1.000000" stroke="none" d="
M531.816040,223.981628 
	C541.209106,224.073898 547.670349,231.491119 549.930664,240.899918 
	C551.384094,246.950104 545.861267,256.405121 538.866577,260.024536 
	C528.187866,265.550232 514.489929,259.911926 511.595367,248.807922 
	C508.114960,235.456528 516.316956,222.939850 531.816040,223.981628 
z" data-index="8" style="opacity: 1; visibility: hidden; fill: rgb(121, 40, 202); stroke: rgb(121, 40, 202);"></path>

<path fill="#FDFDFE" opacity="1.000000" stroke="none" d="
M445.414612,484.631134 
	C455.669800,482.100281 464.530823,488.645874 466.521362,497.741028 
	C468.910309,508.656769 465.539948,517.497620 453.111481,521.909668 
	C443.456268,525.337219 432.217926,518.841431 428.993713,508.524719 
	C428.707275,507.608185 428.423492,506.690826 428.468597,505.264435 
	C434.337341,498.047058 439.875977,491.339081 445.414612,484.631134 
z" data-index="10" style="opacity: 1; visibility: hidden; fill: rgb(121, 40, 202); stroke: rgb(121, 40, 202);"></path>
<path fill="#1298C5" opacity="1.000000" stroke="none" d="
M445.118164,484.433380 
	C439.875977,491.339081 434.337341,498.047058 428.503479,504.886688 
	C426.704742,496.486969 435.937408,483.356171 445.118164,484.433380 
z" data-index="11" style="opacity: 1;"></path>
<path fill="#179BC7" opacity="1.000000" stroke="none" d="
M192.972382,501.218689 
	C188.388062,495.955750 183.984375,490.371033 179.716187,484.432343 
	C188.045334,486.069794 194.318542,494.001770 192.972382,501.218689 
z" data-index="12"></path>
<path fill="#179BC7" opacity="1.000000" stroke="none" d="
M179.891357,483.813446 
	C179.573257,484.042450 179.215912,483.940033 178.748871,483.537598 
	C179.043472,483.319031 179.447784,483.400513 179.891357,483.813446 
z" data-index="13"></path>
</svg>